{
    "asset" : {
        "generator" : "Khronos glTF Blender I/O v1.6.16",
        "version" : "2.0"
    },
    "scene" : 0,
    "scenes" : [
        {
            "name" : "Scene",
            "nodes" : [
                0,
                1,
                2,
                3,
                4,
                5
            ]
        }
    ],
    "nodes" : [
        {
            "mesh" : 0,
            "name" : "Top"
        },
        {
            "mesh" : 1,
            "name" : "Bottom"
        },
        {
            "mesh" : 2,
            "name" : "Door+Y",
            "translation" : [
                0.75,
                0,
                -3
            ]
        },
        {
            "mesh" : 3,
            "name" : "Door-X.001",
            "translation" : [
                3,
                0,
                0.75
            ]
        },
        {
            "mesh" : 4,
            "name" : "Door-Y",
            "translation" : [
                -0.75,
                0,
                3
            ]
        },
        {
            "mesh" : 5,
            "name" : "Door-X",
            "translation" : [
                -3,
                0,
                -0.75
            ]
        }
    ],
    "meshes" : [
        {
            "name" : "Cube.008",
            "primitives" : [
                {
                    "attributes" : {
                        "POSITION" : 0,
                        "NORMAL" : 1,
                        "TEXCOORD_0" : 2
                    },
                    "indices" : 3
                }
            ]
        },
        {
            "name" : "Cube.009",
            "primitives" : [
                {
                    "attributes" : {
                        "POSITION" : 4,
                        "NORMAL" : 5,
                        "TEXCOORD_0" : 6
                    },
                    "indices" : 7
                }
            ]
        },
        {
            "name" : "Cube.010",
            "primitives" : [
                {
                    "attributes" : {
                        "POSITION" : 8,
                        "NORMAL" : 9,
                        "TEXCOORD_0" : 10
                    },
                    "indices" : 11
                }
            ]
        },
        {
            "name" : "Cube.011",
            "primitives" : [
                {
                    "attributes" : {
                        "POSITION" : 12,
                        "NORMAL" : 13,
                        "TEXCOORD_0" : 14
                    },
                    "indices" : 15
                }
            ]
        },
        {
            "name" : "Cube.012",
            "primitives" : [
                {
                    "attributes" : {
                        "POSITION" : 16,
                        "NORMAL" : 17,
                        "TEXCOORD_0" : 18
                    },
                    "indices" : 19
                }
            ]
        },
        {
            "name" : "Cube.013",
            "primitives" : [
                {
                    "attributes" : {
                        "POSITION" : 20,
                        "NORMAL" : 21,
                        "TEXCOORD_0" : 22
                    },
                    "indices" : 15
                }
            ]
        }
    ],
    "accessors" : [
        {
            "bufferView" : 0,
            "componentType" : 5126,
            "count" : 20,
            "max" : [
                3,
                30,
                3
            ],
            "min" : [
                -3,
                6,
                -3
            ],
            "type" : "VEC3"
        },
        {
            "bufferView" : 1,
            "componentType" : 5126,
            "count" : 20,
            "type" : "VEC3"
        },
        {
            "bufferView" : 2,
            "componentType" : 5126,
            "count" : 20,
            "type" : "VEC2"
        },
        {
            "bufferView" : 3,
            "componentType" : 5123,
            "count" : 30,
            "type" : "SCALAR"
        },
        {
            "bufferView" : 4,
            "componentType" : 5126,
            "count" : 54,
            "max" : [
                3,
                6,
                3
            ],
            "min" : [
                -3,
                0,
                -3
            ],
            "type" : "VEC3"
        },
        {
            "bufferView" : 5,
            "componentType" : 5126,
            "count" : 54,
            "type" : "VEC3"
        },
        {
            "bufferView" : 6,
            "componentType" : 5126,
            "count" : 54,
            "type" : "VEC2"
        },
        {
            "bufferView" : 7,
            "componentType" : 5123,
            "count" : 120,
            "type" : "SCALAR"
        },
        {
            "bufferView" : 8,
            "componentType" : 5126,
            "count" : 4,
            "max" : [
                0,
                2.799999952316284,
                0
            ],
            "min" : [
                -1.5,
                0,
                0
            ],
            "type" : "VEC3"
        },
        {
            "bufferView" : 9,
            "componentType" : 5126,
            "count" : 4,
            "type" : "VEC3"
        },
        {
            "bufferView" : 10,
            "componentType" : 5126,
            "count" : 4,
            "type" : "VEC2"
        },
        {
            "bufferView" : 11,
            "componentType" : 5123,
            "count" : 6,
            "type" : "SCALAR"
        },
        {
            "bufferView" : 12,
            "componentType" : 5126,
            "count" : 4,
            "max" : [
                0,
                2.799999952316284,
                0
            ],
            "min" : [
                0,
                0,
                -1.5
            ],
            "type" : "VEC3"
        },
        {
            "bufferView" : 13,
            "componentType" : 5126,
            "count" : 4,
            "type" : "VEC3"
        },
        {
            "bufferView" : 14,
            "componentType" : 5126,
            "count" : 4,
            "type" : "VEC2"
        },
        {
            "bufferView" : 15,
            "componentType" : 5123,
            "count" : 6,
            "type" : "SCALAR"
        },
        {
            "bufferView" : 16,
            "componentType" : 5126,
            "count" : 4,
            "max" : [
                1.5,
                2.799999952316284,
                0
            ],
            "min" : [
                0,
                0,
                0
            ],
            "type" : "VEC3"
        },
        {
            "bufferView" : 17,
            "componentType" : 5126,
            "count" : 4,
            "type" : "VEC3"
        },
        {
            "bufferView" : 18,
            "componentType" : 5126,
            "count" : 4,
            "type" : "VEC2"
        },
        {
            "bufferView" : 19,
            "componentType" : 5123,
            "count" : 6,
            "type" : "SCALAR"
        },
        {
            "bufferView" : 20,
            "componentType" : 5126,
            "count" : 4,
            "max" : [
                0,
                2.799999952316284,
                1.5
            ],
            "min" : [
                0,
                0,
                0
            ],
            "type" : "VEC3"
        },
        {
            "bufferView" : 21,
            "componentType" : 5126,
            "count" : 4,
            "type" : "VEC3"
        },
        {
            "bufferView" : 22,
            "componentType" : 5126,
            "count" : 4,
            "type" : "VEC2"
        }
    ],
    "bufferViews" : [
        {
            "buffer" : 0,
            "byteLength" : 240,
            "byteOffset" : 0
        },
        {
            "buffer" : 0,
            "byteLength" : 240,
            "byteOffset" : 240
        },
        {
            "buffer" : 0,
            "byteLength" : 160,
            "byteOffset" : 480
        },
        {
            "buffer" : 0,
            "byteLength" : 60,
            "byteOffset" : 640
        },
        {
            "buffer" : 0,
            "byteLength" : 648,
            "byteOffset" : 700
        },
        {
            "buffer" : 0,
            "byteLength" : 648,
            "byteOffset" : 1348
        },
        {
            "buffer" : 0,
            "byteLength" : 432,
            "byteOffset" : 1996
        },
        {
            "buffer" : 0,
            "byteLength" : 240,
            "byteOffset" : 2428
        },
        {
            "buffer" : 0,
            "byteLength" : 48,
            "byteOffset" : 2668
        },
        {
            "buffer" : 0,
            "byteLength" : 48,
            "byteOffset" : 2716
        },
        {
            "buffer" : 0,
            "byteLength" : 32,
            "byteOffset" : 2764
        },
        {
            "buffer" : 0,
            "byteLength" : 12,
            "byteOffset" : 2796
        },
        {
            "buffer" : 0,
            "byteLength" : 48,
            "byteOffset" : 2808
        },
        {
            "buffer" : 0,
            "byteLength" : 48,
            "byteOffset" : 2856
        },
        {
            "buffer" : 0,
            "byteLength" : 32,
            "byteOffset" : 2904
        },
        {
            "buffer" : 0,
            "byteLength" : 12,
            "byteOffset" : 2936
        },
        {
            "buffer" : 0,
            "byteLength" : 48,
            "byteOffset" : 2948
        },
        {
            "buffer" : 0,
            "byteLength" : 48,
            "byteOffset" : 2996
        },
        {
            "buffer" : 0,
            "byteLength" : 32,
            "byteOffset" : 3044
        },
        {
            "buffer" : 0,
            "byteLength" : 12,
            "byteOffset" : 3076
        },
        {
            "buffer" : 0,
            "byteLength" : 48,
            "byteOffset" : 3088
        },
        {
            "buffer" : 0,
            "byteLength" : 48,
            "byteOffset" : 3136
        },
        {
            "buffer" : 0,
            "byteLength" : 32,
            "byteOffset" : 3184
        }
    ],
    "buffers" : [
        {
            "byteLength" : 3216,
            "uri" : "room.bin"
        }
    ]
}
