{
    "asset" : {
        "generator" : "Khronos glTF Blender I/O v1.6.16",
        "version" : "2.0"
    },
    "scene" : 0,
    "scenes" : [
        {
            "name" : "Scene",
            "nodes" : [
                0
            ]
        }
    ],
    "nodes" : [
        {
            "mesh" : 0,
            "name" : "Skybox"
        }
    ],
    "meshes" : [
        {
            "name" : "Sphere",
            "primitives" : [
                {
                    "attributes" : {
                        "POSITION" : 0,
                        "NORMAL" : 1,
                        "TANGENT" : 2,
                        "TEXCOORD_0" : 3
                    },
                    "indices" : 4
                }
            ]
        }
    ],
    "accessors" : [
        {
            "bufferView" : 0,
            "componentType" : 5126,
            "count" : 297,
            "max" : [
                100.0000228881836,
                99.53437805175781,
                100.00001525878906
            ],
            "min" : [
                -100,
                -4.371138857095502e-06,
                -100.00003051757812
            ],
            "type" : "VEC3"
        },
        {
            "bufferView" : 1,
            "componentType" : 5126,
            "count" : 297,
            "type" : "VEC3"
        },
        {
            "bufferView" : 2,
            "componentType" : 5126,
            "count" : 297,
            "type" : "VEC4"
        },
        {
            "bufferView" : 3,
            "componentType" : 5126,
            "count" : 297,
            "type" : "VEC2"
        },
        {
            "bufferView" : 4,
            "componentType" : 5123,
            "count" : 1536,
            "type" : "SCALAR"
        }
    ],
    "bufferViews" : [
        {
            "buffer" : 0,
            "byteLength" : 3564,
            "byteOffset" : 0
        },
        {
            "buffer" : 0,
            "byteLength" : 3564,
            "byteOffset" : 3564
        },
        {
            "buffer" : 0,
            "byteLength" : 4752,
            "byteOffset" : 7128
        },
        {
            "buffer" : 0,
            "byteLength" : 2376,
            "byteOffset" : 11880
        },
        {
            "buffer" : 0,
            "byteLength" : 3072,
            "byteOffset" : 14256
        }
    ],
    "buffers" : [
        {
            "byteLength" : 17328,
            "uri" : "skydome.bin"
        }
    ]
}
