{
    "asset" : {
        "generator" : "Khronos glTF Blender I/O v1.6.16",
        "version" : "2.0"
    },
    "scene" : 0,
    "scenes" : [
        {
            "name" : "Scene",
            "nodes" : [
                0,
                1,
                2,
                3
            ]
        }
    ],
    "nodes" : [
        {
            "mesh" : 0,
            "name" : "dragon"
        },
        {
            "mesh" : 1,
            "name" : "bunny"
        },
        {
            "mesh" : 2,
            "name" : "teapot"
        },
        {
            "mesh" : 3,
            "name" : "torus"
        }
    ],
    "meshes" : [
        {
            "name" : "dragon",
            "primitives" : [
                {
                    "attributes" : {
                        "POSITION" : 0,
                        "NORMAL" : 1,
                        "TEXCOORD_0" : 2
                    },
                    "indices" : 3
                }
            ]
        },
        {
            "name" : "bunny",
            "primitives" : [
                {
                    "attributes" : {
                        "POSITION" : 4,
                        "NORMAL" : 5,
                        "TEXCOORD_0" : 6
                    },
                    "indices" : 7
                }
            ]
        },
        {
            "name" : "teapot",
            "primitives" : [
                {
                    "attributes" : {
                        "POSITION" : 8,
                        "NORMAL" : 9,
                        "TEXCOORD_0" : 10
                    },
                    "indices" : 11
                }
            ]
        },
        {
            "name" : "torus",
            "primitives" : [
                {
                    "attributes" : {
                        "POSITION" : 12,
                        "NORMAL" : 13,
                        "TEXCOORD_0" : 14
                    },
                    "indices" : 15
                }
            ]
        }
    ],
    "accessors" : [
        {
            "bufferView" : 0,
            "componentType" : 5126,
            "count" : 52230,
            "max" : [
                0.9531677961349487,
                0.8126507997512817,
                0.442190945148468
            ],
            "min" : [
                -0.9440299272537231,
                -0.5249736905097961,
                -0.40643566846847534
            ],
            "type" : "VEC3"
        },
        {
            "bufferView" : 1,
            "componentType" : 5126,
            "count" : 52230,
            "type" : "VEC3"
        },
        {
            "bufferView" : 2,
            "componentType" : 5126,
            "count" : 52230,
            "type" : "VEC2"
        },
        {
            "bufferView" : 3,
            "componentType" : 5123,
            "count" : 52284,
            "type" : "SCALAR"
        },
        {
            "bufferView" : 4,
            "componentType" : 5126,
            "count" : 14904,
            "max" : [
                0.7567317485809326,
                0.8850491642951965,
                0.46843644976615906
            ],
            "min" : [
                -0.67844557762146,
                -0.5365029573440552,
                -0.6451707482337952
            ],
            "type" : "VEC3"
        },
        {
            "bufferView" : 5,
            "componentType" : 5126,
            "count" : 14904,
            "type" : "VEC3"
        },
        {
            "bufferView" : 6,
            "componentType" : 5126,
            "count" : 14904,
            "type" : "VEC2"
        },
        {
            "bufferView" : 7,
            "componentType" : 5123,
            "count" : 14904,
            "type" : "SCALAR"
        },
        {
            "bufferView" : 8,
            "componentType" : 5126,
            "count" : 3309,
            "max" : [
                0.8444250226020813,
                0.543729305267334,
                0.5629500150680542
            ],
            "min" : [
                -0.9665849804878235,
                -0.38356682658195496,
                -0.5629500150680542
            ],
            "type" : "VEC3"
        },
        {
            "bufferView" : 9,
            "componentType" : 5126,
            "count" : 3309,
            "type" : "VEC3"
        },
        {
            "bufferView" : 10,
            "componentType" : 5126,
            "count" : 3309,
            "type" : "VEC2"
        },
        {
            "bufferView" : 11,
            "componentType" : 5123,
            "count" : 18960,
            "type" : "SCALAR"
        },
        {
            "bufferView" : 12,
            "componentType" : 5126,
            "count" : 10321,
            "max" : [
                0.6039190292358398,
                0.35814380645751953,
                0.7572860717773438
            ],
            "min" : [
                -0.8179531097412109,
                -0.36239147186279297,
                -0.7574653625488281
            ],
            "type" : "VEC3"
        },
        {
            "bufferView" : 13,
            "componentType" : 5126,
            "count" : 10321,
            "type" : "VEC3"
        },
        {
            "bufferView" : 14,
            "componentType" : 5126,
            "count" : 10321,
            "type" : "VEC2"
        },
        {
            "bufferView" : 15,
            "componentType" : 5123,
            "count" : 61440,
            "type" : "SCALAR"
        }
    ],
    "bufferViews" : [
        {
            "buffer" : 0,
            "byteLength" : 626760,
            "byteOffset" : 0
        },
        {
            "buffer" : 0,
            "byteLength" : 626760,
            "byteOffset" : 626760
        },
        {
            "buffer" : 0,
            "byteLength" : 417840,
            "byteOffset" : 1253520
        },
        {
            "buffer" : 0,
            "byteLength" : 104568,
            "byteOffset" : 1671360
        },
        {
            "buffer" : 0,
            "byteLength" : 178848,
            "byteOffset" : 1775928
        },
        {
            "buffer" : 0,
            "byteLength" : 178848,
            "byteOffset" : 1954776
        },
        {
            "buffer" : 0,
            "byteLength" : 119232,
            "byteOffset" : 2133624
        },
        {
            "buffer" : 0,
            "byteLength" : 29808,
            "byteOffset" : 2252856
        },
        {
            "buffer" : 0,
            "byteLength" : 39708,
            "byteOffset" : 2282664
        },
        {
            "buffer" : 0,
            "byteLength" : 39708,
            "byteOffset" : 2322372
        },
        {
            "buffer" : 0,
            "byteLength" : 26472,
            "byteOffset" : 2362080
        },
        {
            "buffer" : 0,
            "byteLength" : 37920,
            "byteOffset" : 2388552
        },
        {
            "buffer" : 0,
            "byteLength" : 123852,
            "byteOffset" : 2426472
        },
        {
            "buffer" : 0,
            "byteLength" : 123852,
            "byteOffset" : 2550324
        },
        {
            "buffer" : 0,
            "byteLength" : 82568,
            "byteOffset" : 2674176
        },
        {
            "buffer" : 0,
            "byteLength" : 122880,
            "byteOffset" : 2756744
        }
    ],
    "buffers" : [
        {
            "byteLength" : 2879624,
            "uri" : "testGeo.bin"
        }
    ]
}
