{
    "asset" : {
        "generator" : "Khronos glTF Blender I/O v1.6.16",
        "version" : "2.0"
    },
    "scene" : 0,
    "scenes" : [
        {
            "name" : "Scene",
            "nodes" : [
                7
            ]
        }
    ],
    "nodes" : [
        {
            "name" : "LeafABone2",
            "translation" : [
                0,
                0.5,
                0
            ]
        },
        {
            "children" : [
                0
            ],
            "name" : "LeafABone1",
            "translation" : [
                0,
                0.5,
                0
            ]
        },
        {
            "name" : "LeafBBone2",
            "translation" : [
                0,
                0.5,
                0
            ]
        },
        {
            "children" : [
                2
            ],
            "name" : "LeafBBone1",
            "rotation" : [
                -2.6692541510442425e-08,
                2.6692541510442425e-08,
                0.7071068286895752,
                0.7071068286895752
            ],
            "translation" : [
                0,
                0.5,
                0
            ]
        },
        {
            "children" : [
                1,
                3
            ],
            "name" : "ChildBone",
            "translation" : [
                0,
                0.5,
                0
            ]
        },
        {
            "children" : [
                4
            ],
            "name" : "RootBone"
        },
        {
            "mesh" : 0,
            "name" : "SkinnedMesh",
            "skin" : 0
        },
        {
            "children" : [
                6,
                5
            ],
            "name" : "Armature"
        }
    ],
    "animations" : [
        {
            "channels" : [
                {
                    "sampler" : 0,
                    "target" : {
                        "node" : 5,
                        "path" : "translation"
                    }
                },
                {
                    "sampler" : 1,
                    "target" : {
                        "node" : 5,
                        "path" : "rotation"
                    }
                },
                {
                    "sampler" : 2,
                    "target" : {
                        "node" : 5,
                        "path" : "scale"
                    }
                },
                {
                    "sampler" : 3,
                    "target" : {
                        "node" : 4,
                        "path" : "translation"
                    }
                },
                {
                    "sampler" : 4,
                    "target" : {
                        "node" : 4,
                        "path" : "rotation"
                    }
                },
                {
                    "sampler" : 5,
                    "target" : {
                        "node" : 4,
                        "path" : "scale"
                    }
                },
                {
                    "sampler" : 6,
                    "target" : {
                        "node" : 1,
                        "path" : "translation"
                    }
                },
                {
                    "sampler" : 7,
                    "target" : {
                        "node" : 1,
                        "path" : "rotation"
                    }
                },
                {
                    "sampler" : 8,
                    "target" : {
                        "node" : 1,
                        "path" : "scale"
                    }
                },
                {
                    "sampler" : 9,
                    "target" : {
                        "node" : 0,
                        "path" : "translation"
                    }
                },
                {
                    "sampler" : 10,
                    "target" : {
                        "node" : 0,
                        "path" : "rotation"
                    }
                },
                {
                    "sampler" : 11,
                    "target" : {
                        "node" : 0,
                        "path" : "scale"
                    }
                },
                {
                    "sampler" : 12,
                    "target" : {
                        "node" : 3,
                        "path" : "translation"
                    }
                },
                {
                    "sampler" : 13,
                    "target" : {
                        "node" : 3,
                        "path" : "rotation"
                    }
                },
                {
                    "sampler" : 14,
                    "target" : {
                        "node" : 3,
                        "path" : "scale"
                    }
                },
                {
                    "sampler" : 15,
                    "target" : {
                        "node" : 2,
                        "path" : "translation"
                    }
                },
                {
                    "sampler" : 16,
                    "target" : {
                        "node" : 2,
                        "path" : "rotation"
                    }
                },
                {
                    "sampler" : 17,
                    "target" : {
                        "node" : 2,
                        "path" : "scale"
                    }
                }
            ],
            "name" : "TestAnimation",
            "samplers" : [
                {
                    "input" : 7,
                    "interpolation" : "LINEAR",
                    "output" : 8
                },
                {
                    "input" : 7,
                    "interpolation" : "LINEAR",
                    "output" : 9
                },
                {
                    "input" : 7,
                    "interpolation" : "LINEAR",
                    "output" : 10
                },
                {
                    "input" : 7,
                    "interpolation" : "LINEAR",
                    "output" : 11
                },
                {
                    "input" : 7,
                    "interpolation" : "LINEAR",
                    "output" : 12
                },
                {
                    "input" : 7,
                    "interpolation" : "LINEAR",
                    "output" : 13
                },
                {
                    "input" : 7,
                    "interpolation" : "LINEAR",
                    "output" : 14
                },
                {
                    "input" : 7,
                    "interpolation" : "LINEAR",
                    "output" : 15
                },
                {
                    "input" : 7,
                    "interpolation" : "LINEAR",
                    "output" : 16
                },
                {
                    "input" : 7,
                    "interpolation" : "LINEAR",
                    "output" : 17
                },
                {
                    "input" : 7,
                    "interpolation" : "LINEAR",
                    "output" : 18
                },
                {
                    "input" : 7,
                    "interpolation" : "LINEAR",
                    "output" : 19
                },
                {
                    "input" : 7,
                    "interpolation" : "LINEAR",
                    "output" : 20
                },
                {
                    "input" : 7,
                    "interpolation" : "LINEAR",
                    "output" : 21
                },
                {
                    "input" : 7,
                    "interpolation" : "LINEAR",
                    "output" : 22
                },
                {
                    "input" : 7,
                    "interpolation" : "LINEAR",
                    "output" : 23
                },
                {
                    "input" : 7,
                    "interpolation" : "LINEAR",
                    "output" : 24
                },
                {
                    "input" : 7,
                    "interpolation" : "LINEAR",
                    "output" : 25
                }
            ]
        }
    ],
    "meshes" : [
        {
            "name" : "SkinnedGeometry",
            "primitives" : [
                {
                    "attributes" : {
                        "POSITION" : 0,
                        "NORMAL" : 1,
                        "TEXCOORD_0" : 2,
                        "JOINTS_0" : 3,
                        "WEIGHTS_0" : 4
                    },
                    "indices" : 5
                }
            ]
        }
    ],
    "skins" : [
        {
            "inverseBindMatrices" : 6,
            "joints" : [
                5,
                4,
                1,
                0,
                3,
                2
            ],
            "name" : "Armature"
        }
    ],
    "accessors" : [
        {
            "bufferView" : 0,
            "componentType" : 5126,
            "count" : 71,
            "max" : [
                0.21650636196136475,
                2.031643867492676,
                0.1250000149011612
            ],
            "min" : [
                -1.01768958568573,
                0,
                -0.25
            ],
            "type" : "VEC3"
        },
        {
            "bufferView" : 1,
            "componentType" : 5126,
            "count" : 71,
            "type" : "VEC3"
        },
        {
            "bufferView" : 2,
            "componentType" : 5126,
            "count" : 71,
            "type" : "VEC2"
        },
        {
            "bufferView" : 3,
            "componentType" : 5121,
            "count" : 71,
            "type" : "VEC4"
        },
        {
            "bufferView" : 4,
            "componentType" : 5126,
            "count" : 71,
            "type" : "VEC4"
        },
        {
            "bufferView" : 5,
            "componentType" : 5123,
            "count" : 180,
            "type" : "SCALAR"
        },
        {
            "bufferView" : 6,
            "componentType" : 5126,
            "count" : 6,
            "type" : "MAT4"
        },
        {
            "bufferView" : 7,
            "componentType" : 5126,
            "count" : 30,
            "max" : [
                1
            ],
            "min" : [
                0.03333333333333333
            ],
            "type" : "SCALAR"
        },
        {
            "bufferView" : 8,
            "componentType" : 5126,
            "count" : 30,
            "type" : "VEC3"
        },
        {
            "bufferView" : 9,
            "componentType" : 5126,
            "count" : 30,
            "type" : "VEC4"
        },
        {
            "bufferView" : 10,
            "componentType" : 5126,
            "count" : 30,
            "type" : "VEC3"
        },
        {
            "bufferView" : 11,
            "componentType" : 5126,
            "count" : 30,
            "type" : "VEC3"
        },
        {
            "bufferView" : 12,
            "componentType" : 5126,
            "count" : 30,
            "type" : "VEC4"
        },
        {
            "bufferView" : 13,
            "componentType" : 5126,
            "count" : 30,
            "type" : "VEC3"
        },
        {
            "bufferView" : 14,
            "componentType" : 5126,
            "count" : 30,
            "type" : "VEC3"
        },
        {
            "bufferView" : 15,
            "componentType" : 5126,
            "count" : 30,
            "type" : "VEC4"
        },
        {
            "bufferView" : 16,
            "componentType" : 5126,
            "count" : 30,
            "type" : "VEC3"
        },
        {
            "bufferView" : 17,
            "componentType" : 5126,
            "count" : 30,
            "type" : "VEC3"
        },
        {
            "bufferView" : 18,
            "componentType" : 5126,
            "count" : 30,
            "type" : "VEC4"
        },
        {
            "bufferView" : 19,
            "componentType" : 5126,
            "count" : 30,
            "type" : "VEC3"
        },
        {
            "bufferView" : 20,
            "componentType" : 5126,
            "count" : 30,
            "type" : "VEC3"
        },
        {
            "bufferView" : 21,
            "componentType" : 5126,
            "count" : 30,
            "type" : "VEC4"
        },
        {
            "bufferView" : 22,
            "componentType" : 5126,
            "count" : 30,
            "type" : "VEC3"
        },
        {
            "bufferView" : 23,
            "componentType" : 5126,
            "count" : 30,
            "type" : "VEC3"
        },
        {
            "bufferView" : 24,
            "componentType" : 5126,
            "count" : 30,
            "type" : "VEC4"
        },
        {
            "bufferView" : 25,
            "componentType" : 5126,
            "count" : 30,
            "type" : "VEC3"
        }
    ],
    "bufferViews" : [
        {
            "buffer" : 0,
            "byteLength" : 852,
            "byteOffset" : 0
        },
        {
            "buffer" : 0,
            "byteLength" : 852,
            "byteOffset" : 852
        },
        {
            "buffer" : 0,
            "byteLength" : 568,
            "byteOffset" : 1704
        },
        {
            "buffer" : 0,
            "byteLength" : 284,
            "byteOffset" : 2272
        },
        {
            "buffer" : 0,
            "byteLength" : 1136,
            "byteOffset" : 2556
        },
        {
            "buffer" : 0,
            "byteLength" : 360,
            "byteOffset" : 3692
        },
        {
            "buffer" : 0,
            "byteLength" : 384,
            "byteOffset" : 4052
        },
        {
            "buffer" : 0,
            "byteLength" : 120,
            "byteOffset" : 4436
        },
        {
            "buffer" : 0,
            "byteLength" : 360,
            "byteOffset" : 4556
        },
        {
            "buffer" : 0,
            "byteLength" : 480,
            "byteOffset" : 4916
        },
        {
            "buffer" : 0,
            "byteLength" : 360,
            "byteOffset" : 5396
        },
        {
            "buffer" : 0,
            "byteLength" : 360,
            "byteOffset" : 5756
        },
        {
            "buffer" : 0,
            "byteLength" : 480,
            "byteOffset" : 6116
        },
        {
            "buffer" : 0,
            "byteLength" : 360,
            "byteOffset" : 6596
        },
        {
            "buffer" : 0,
            "byteLength" : 360,
            "byteOffset" : 6956
        },
        {
            "buffer" : 0,
            "byteLength" : 480,
            "byteOffset" : 7316
        },
        {
            "buffer" : 0,
            "byteLength" : 360,
            "byteOffset" : 7796
        },
        {
            "buffer" : 0,
            "byteLength" : 360,
            "byteOffset" : 8156
        },
        {
            "buffer" : 0,
            "byteLength" : 480,
            "byteOffset" : 8516
        },
        {
            "buffer" : 0,
            "byteLength" : 360,
            "byteOffset" : 8996
        },
        {
            "buffer" : 0,
            "byteLength" : 360,
            "byteOffset" : 9356
        },
        {
            "buffer" : 0,
            "byteLength" : 480,
            "byteOffset" : 9716
        },
        {
            "buffer" : 0,
            "byteLength" : 360,
            "byteOffset" : 10196
        },
        {
            "buffer" : 0,
            "byteLength" : 360,
            "byteOffset" : 10556
        },
        {
            "buffer" : 0,
            "byteLength" : 480,
            "byteOffset" : 10916
        },
        {
            "buffer" : 0,
            "byteLength" : 360,
            "byteOffset" : 11396
        }
    ],
    "buffers" : [
        {
            "byteLength" : 11756,
            "uri" : "testAnimGeo.bin"
        }
    ]
}
