{
    "asset" : {
        "generator" : "Khronos glTF Blender I/O v1.6.16",
        "version" : "2.0"
    },
    "scene" : 0,
    "scenes" : [
        {
            "name" : "Scene",
            "nodes" : [
                0,
                1
            ]
        }
    ],
    "nodes" : [
        {
            "mesh" : 0,
            "name" : "Branch"
        },
        {
            "mesh" : 1,
            "name" : "Leaf"
        }
    ],
    "materials" : [
        {
            "doubleSided" : true,
            "emissiveFactor" : [
                1,
                1,
                1
            ],
            "emissiveTexture" : {
                "index" : 0
            },
            "name" : "Bark",
            "pbrMetallicRoughness" : {}
        },
        {
            "doubleSided" : true,
            "emissiveFactor" : [
                1,
                1,
                1
            ],
            "emissiveTexture" : {
                "index" : 1
            },
            "name" : "Branch",
            "pbrMetallicRoughness" : {}
        }
    ],
    "meshes" : [
        {
            "name" : "Cube",
            "primitives" : [
                {
                    "attributes" : {
                        "POSITION" : 0,
                        "NORMAL" : 1,
                        "TEXCOORD_0" : 2
                    },
                    "indices" : 3,
                    "material" : 0
                }
            ]
        },
        {
            "name" : "Plane.064",
            "primitives" : [
                {
                    "attributes" : {
                        "POSITION" : 4,
                        "NORMAL" : 5,
                        "TEXCOORD_0" : 6
                    },
                    "indices" : 7,
                    "material" : 1
                }
            ]
        }
    ],
    "textures" : [
        {
            "sampler" : 0,
            "source" : 0
        },
        {
            "sampler" : 1,
            "source" : 1
        }
    ],
    "images" : [
        {
            "mimeType" : "image/jpeg",
            "name" : "PineBarkA_Diffuse",
            "uri" : "PineBarkA_Diffuse.jpg"
        },
        {
            "mimeType" : "image/png",
            "name" : "TexturesCom_Shrub_NestedSpruce01B_512_albedo",
            "uri" : "TexturesCom_Shrub_NestedSpruce01B_512_albedo.png"
        }
    ],
    "accessors" : [
        {
            "bufferView" : 0,
            "componentType" : 5126,
            "count" : 709,
            "max" : [
                1.9481465816497803,
                17.39357566833496,
                1.1441823244094849
            ],
            "min" : [
                -2.196030616760254,
                0,
                -1.8578300476074219
            ],
            "type" : "VEC3"
        },
        {
            "bufferView" : 1,
            "componentType" : 5126,
            "count" : 709,
            "type" : "VEC3"
        },
        {
            "bufferView" : 2,
            "componentType" : 5126,
            "count" : 709,
            "type" : "VEC2"
        },
        {
            "bufferView" : 3,
            "componentType" : 5123,
            "count" : 1920,
            "type" : "SCALAR"
        },
        {
            "bufferView" : 4,
            "componentType" : 5126,
            "count" : 240,
            "max" : [
                3.125246286392212,
                17.50455093383789,
                2.4448277950286865
            ],
            "min" : [
                -3.441561460494995,
                7.503602504730225,
                -2.7788376808166504
            ],
            "type" : "VEC3"
        },
        {
            "bufferView" : 5,
            "componentType" : 5126,
            "count" : 240,
            "type" : "VEC3"
        },
        {
            "bufferView" : 6,
            "componentType" : 5126,
            "count" : 240,
            "type" : "VEC2"
        },
        {
            "bufferView" : 7,
            "componentType" : 5123,
            "count" : 360,
            "type" : "SCALAR"
        }
    ],
    "bufferViews" : [
        {
            "buffer" : 0,
            "byteLength" : 8508,
            "byteOffset" : 0
        },
        {
            "buffer" : 0,
            "byteLength" : 8508,
            "byteOffset" : 8508
        },
        {
            "buffer" : 0,
            "byteLength" : 5672,
            "byteOffset" : 17016
        },
        {
            "buffer" : 0,
            "byteLength" : 3840,
            "byteOffset" : 22688
        },
        {
            "buffer" : 0,
            "byteLength" : 2880,
            "byteOffset" : 26528
        },
        {
            "buffer" : 0,
            "byteLength" : 2880,
            "byteOffset" : 29408
        },
        {
            "buffer" : 0,
            "byteLength" : 1920,
            "byteOffset" : 32288
        },
        {
            "buffer" : 0,
            "byteLength" : 720,
            "byteOffset" : 34208
        }
    ],
    "samplers" : [
        {
            "magFilter" : 9729,
            "minFilter" : 9987
        },
        {
            "magFilter" : 9728,
            "minFilter" : 9984,
            "wrapS" : 33071,
            "wrapT" : 33071
        }
    ],
    "buffers" : [
        {
            "byteLength" : 34928,
            "uri" : "tree.bin"
        }
    ]
}
